<mxfile host="app.diagrams.net" agent="Mozilla/5.0 (Macintosh; Intel Mac OS X 10_15_7) AppleWebKit/537.36 (KHTML, like Gecko) Chrome/139.0.0.0 Safari/537.36" version="28.2.0">
  <diagram id="3228e29e-7158-1315-38df-8450db1d8a1d" name="Page-1">
    <mxGraphModel dx="771" dy="325" grid="0" gridSize="10" guides="1" tooltips="1" connect="1" arrows="1" fold="1" page="1" pageScale="1" pageWidth="650" pageHeight="600" background="#EFF1F3" math="0" shadow="0">
      <root>
        <mxCell id="0" />
        <mxCell id="1" parent="0" />
        <mxCell id="_KJd5dzx4qh3lxpyMWcO-2" value="" style="fontColor=#0066CC;verticalAlign=top;verticalLabelPosition=bottom;labelPosition=center;align=center;html=1;outlineConnect=0;gradientColor=none;gradientDirection=north;strokeWidth=2;shape=mxgraph.networks.pc;fillColor=#67AB9F;fontSize=30;" parent="1" vertex="1">
          <mxGeometry x="134.95000000000002" y="692" width="74.65" height="54" as="geometry" />
        </mxCell>
        <mxCell id="T-5VQnCJckOgUX1Wp16H-28" value="客户端" style="text;html=1;strokeColor=none;fillColor=none;align=center;verticalAlign=middle;whiteSpace=wrap;rounded=0;fontSize=22;" parent="1" vertex="1">
          <mxGeometry x="82.76999999999998" y="760" width="179" height="20" as="geometry" />
        </mxCell>
        <mxCell id="aH1-eks404bDhsACtXEq-2" value="" style="fontColor=#0066CC;verticalAlign=top;verticalLabelPosition=bottom;labelPosition=center;align=center;html=1;outlineConnect=0;gradientColor=none;gradientDirection=north;strokeWidth=2;shape=mxgraph.networks.server;fillColor=#4A919B;" parent="1" vertex="1">
          <mxGeometry x="466.95" y="682" width="51.5" height="64" as="geometry" />
        </mxCell>
        <mxCell id="aH1-eks404bDhsACtXEq-3" value="服务端" style="text;html=1;strokeColor=none;fillColor=none;align=center;verticalAlign=middle;whiteSpace=wrap;rounded=0;fontSize=22;" parent="1" vertex="1">
          <mxGeometry x="405.95" y="760" width="179" height="20" as="geometry" />
        </mxCell>
        <mxCell id="aH1-eks404bDhsACtXEq-4" value="&lt;font style=&quot;font-size: 30px&quot;&gt;服务端close()触发TCP四次挥手&lt;/font&gt;" style="text;html=1;strokeColor=none;fillColor=none;align=center;verticalAlign=middle;whiteSpace=wrap;rounded=0;" parent="1" vertex="1">
          <mxGeometry x="127.18" y="639" width="438.82" height="28" as="geometry" />
        </mxCell>
        <mxCell id="aH1-eks404bDhsACtXEq-7" value="" style="endArrow=none;html=1;strokeWidth=5;" parent="1" edge="1">
          <mxGeometry width="50" height="50" relative="1" as="geometry">
            <mxPoint x="183.68" y="1161" as="sourcePoint" />
            <mxPoint x="183.68" y="823" as="targetPoint" />
          </mxGeometry>
        </mxCell>
        <mxCell id="aH1-eks404bDhsACtXEq-10" value="" style="endArrow=classic;html=1;strokeWidth=5;fontSize=20;" parent="1" edge="1">
          <mxGeometry width="50" height="50" relative="1" as="geometry">
            <mxPoint x="454" y="849" as="sourcePoint" />
            <mxPoint x="200.93000000000012" y="854.5" as="targetPoint" />
          </mxGeometry>
        </mxCell>
        <mxCell id="aH1-eks404bDhsACtXEq-11" value="FIN" style="text;html=1;strokeColor=none;fillColor=none;align=center;verticalAlign=middle;whiteSpace=wrap;rounded=0;fontSize=20;" parent="1" vertex="1">
          <mxGeometry x="274.18" y="822.5" width="92" height="21" as="geometry" />
        </mxCell>
        <mxCell id="aH1-eks404bDhsACtXEq-12" value="" style="endArrow=none;html=1;strokeWidth=5;startArrow=classic;startFill=1;endFill=0;" parent="1" edge="1">
          <mxGeometry width="50" height="50" relative="1" as="geometry">
            <mxPoint x="460" y="954" as="sourcePoint" />
            <mxPoint x="195.18000000000012" y="867" as="targetPoint" />
          </mxGeometry>
        </mxCell>
        <mxCell id="aH1-eks404bDhsACtXEq-13" value="" style="endArrow=classic;html=1;strokeWidth=5;strokeColor=#EA6B66;" parent="1" edge="1">
          <mxGeometry width="50" height="50" relative="1" as="geometry">
            <mxPoint x="460.6800000000001" y="1070" as="sourcePoint" />
            <mxPoint x="200.43000000000012" y="1107" as="targetPoint" />
          </mxGeometry>
        </mxCell>
        <mxCell id="aH1-eks404bDhsACtXEq-16" value="FIN-WAIT-1" style="rounded=1;whiteSpace=wrap;html=1;strokeColor=#000000;fillColor=none;dashed=1;strokeWidth=3;" parent="1" vertex="1">
          <mxGeometry x="485.18" y="859" width="88" height="95" as="geometry" />
        </mxCell>
        <mxCell id="aH1-eks404bDhsACtXEq-17" value="&lt;span style=&quot;font-family: &amp;quot;open sans&amp;quot; , &amp;quot;clear sans&amp;quot; , &amp;quot;helvetica neue&amp;quot; , &amp;quot;helvetica&amp;quot; , &amp;quot;arial&amp;quot; , sans-serif&quot;&gt;&lt;font style=&quot;font-size: 12px&quot;&gt;ESTABLISHED&lt;/font&gt;&lt;/span&gt;" style="rounded=1;whiteSpace=wrap;html=1;dashed=1;strokeWidth=3;strokeColor=none;fillColor=#535E80;fontColor=#FFFFFF;" parent="1" vertex="1">
          <mxGeometry x="79" y="792" width="89" height="56" as="geometry" />
        </mxCell>
        <mxCell id="aH1-eks404bDhsACtXEq-18" value="&lt;span&gt;CLOSE-WAIT&lt;/span&gt;" style="rounded=1;whiteSpace=wrap;html=1;strokeColor=#000000;fillColor=none;dashed=1;strokeWidth=3;" parent="1" vertex="1">
          <mxGeometry x="79.50000000000006" y="859" width="87.5" height="275" as="geometry" />
        </mxCell>
        <mxCell id="aH1-eks404bDhsACtXEq-21" value="FIN-WAIT-2" style="rounded=1;whiteSpace=wrap;html=1;strokeColor=#000000;fillColor=none;dashed=1;strokeWidth=3;" parent="1" vertex="1">
          <mxGeometry x="485" y="968" width="88" height="174" as="geometry" />
        </mxCell>
        <mxCell id="aH1-eks404bDhsACtXEq-22" value="ACK" style="text;html=1;strokeColor=none;fillColor=none;align=center;verticalAlign=middle;whiteSpace=wrap;rounded=0;fontSize=20;rotation=15;flipH=1;flipV=1;" parent="1" vertex="1">
          <mxGeometry x="194" y="877.0000000000001" width="269" height="32" as="geometry" />
        </mxCell>
        <mxCell id="YXoqQ_mGJv7HDvLP6CB5-1" value="" style="endArrow=none;html=1;strokeWidth=5;" parent="1" edge="1">
          <mxGeometry width="50" height="50" relative="1" as="geometry">
            <mxPoint x="469.68" y="1160" as="sourcePoint" />
            <mxPoint x="469.1800000000001" y="823" as="targetPoint" />
          </mxGeometry>
        </mxCell>
        <mxCell id="CZwPZS3a3ZRwMsVz8uld-1" value="" style="endArrow=none;html=1;strokeWidth=5;startArrow=classic;startFill=1;endFill=0;strokeColor=#4A919B;" parent="1" edge="1">
          <mxGeometry width="50" height="50" relative="1" as="geometry">
            <mxPoint x="461.4300000000001" y="1056" as="sourcePoint" />
            <mxPoint x="196.43000000000012" y="987" as="targetPoint" />
          </mxGeometry>
        </mxCell>
        <mxCell id="CZwPZS3a3ZRwMsVz8uld-2" value="&lt;font color=&quot;#ea6b66&quot;&gt;RST&lt;/font&gt;" style="text;html=1;strokeColor=none;fillColor=none;align=center;verticalAlign=middle;whiteSpace=wrap;rounded=0;dashed=1;fontSize=20;rotation=0;" parent="1" vertex="1">
          <mxGeometry x="209.60000000000002" y="1072" width="132" height="20" as="geometry" />
        </mxCell>
        <mxCell id="CZwPZS3a3ZRwMsVz8uld-3" value="&lt;font color=&quot;#4a919b&quot;&gt;数据传输&lt;/font&gt;" style="text;html=1;strokeColor=none;fillColor=none;align=center;verticalAlign=middle;whiteSpace=wrap;rounded=0;fontSize=20;rotation=15;" parent="1" vertex="1">
          <mxGeometry x="187.93" y="985" width="269" height="32" as="geometry" />
        </mxCell>
        <mxCell id="620c4s5pLBTuJ2dwkKwi-3" value="&lt;span style=&quot;font-family: &amp;#34;open sans&amp;#34; , &amp;#34;clear sans&amp;#34; , &amp;#34;helvetica neue&amp;#34; , &amp;#34;helvetica&amp;#34; , &amp;#34;arial&amp;#34; , sans-serif&quot;&gt;&lt;font style=&quot;font-size: 22px&quot;&gt;close( )&lt;/font&gt;&lt;/span&gt;&lt;span style=&quot;font-family: &amp;#34;open sans&amp;#34; , &amp;#34;clear sans&amp;#34; , &amp;#34;helvetica neue&amp;#34; , &amp;#34;helvetica&amp;#34; , &amp;#34;arial&amp;#34; , sans-serif&quot;&gt;&lt;font&gt;&lt;br&gt;&lt;/font&gt;&lt;/span&gt;" style="rounded=1;whiteSpace=wrap;html=1;dashed=1;strokeWidth=3;strokeColor=none;fontColor=#FFFFFF;fillColor=#4A919B;" parent="1" vertex="1">
          <mxGeometry x="482" y="801" width="89" height="47" as="geometry" />
        </mxCell>
        <mxCell id="Z4Q0V03YyE0IQ6M9Smkn-7" value="&lt;div style=&quot;line-height: 1.75 ; font-size: 14px&quot;&gt;&lt;font color=&quot;#ea6b66&quot;&gt;SIGPIPE&lt;/font&gt;&lt;/div&gt;&lt;div style=&quot;line-height: 1.75 ; font-size: 14px&quot;&gt;&lt;font color=&quot;#ea6b66&quot;&gt;信号&lt;/font&gt;&lt;/div&gt;" style="text;html=1;fillColor=none;align=center;verticalAlign=middle;whiteSpace=wrap;rounded=0;" parent="1" vertex="1">
          <mxGeometry x="78.00000000000006" y="1087" width="91" height="35" as="geometry" />
        </mxCell>
        <mxCell id="6MNQPDtw6eEnSm6yjCy_-1" value="注意close()是完全关闭，此时同时关闭「收」和「发」" style="text;html=1;align=left;verticalAlign=middle;whiteSpace=wrap;rounded=0;" vertex="1" parent="1">
          <mxGeometry x="573.18" y="799" width="160.82" height="30" as="geometry" />
        </mxCell>
        <mxCell id="6MNQPDtw6eEnSm6yjCy_-2" value="shutdown()才是半关闭" style="text;html=1;align=center;verticalAlign=middle;whiteSpace=wrap;rounded=0;" vertex="1" parent="1">
          <mxGeometry x="571" y="834" width="126" height="30" as="geometry" />
        </mxCell>
      </root>
    </mxGraphModel>
  </diagram>
</mxfile>
